<svg xmlns="http://www.w3.org/2000/svg" xmlns:xlink="http://www.w3.org/1999/xlink" version="1.1" width="256" height="256" viewBox="0 0 256 256" xml:space="preserve">

<defs>
</defs>
<g style="stroke: none; stroke-width: 0; stroke-dasharray: none; stroke-linecap: butt; stroke-linejoin: miter; stroke-miterlimit: 10; fill: none; fill-rule: nonzero; opacity: 1;" transform="translate(1.4065934065934016 1.4065934065934016) scale(2.81 2.81)" >
	<path d="M 89.75 54.995 c -0.333 -0.806 -0.961 -1.435 -1.767 -1.769 h -0.001 c -3.391 -1.404 -5.497 -4.556 -5.497 -8.225 c 0 -3.669 2.106 -6.821 5.497 -8.225 c 1.664 -0.69 2.457 -2.605 1.768 -4.269 l -4.271 -10.313 c -0.69 -1.665 -2.605 -2.458 -4.269 -1.768 c -3.389 1.404 -7.109 0.664 -9.704 -1.93 c -2.594 -2.595 -3.333 -6.312 -1.929 -9.702 c 0.334 -0.806 0.334 -1.694 0 -2.501 c -0.334 -0.806 -0.962 -1.434 -1.768 -1.768 L 57.496 0.251 c -0.807 -0.334 -1.696 -0.334 -2.501 0 c -0.808 0.334 -1.436 0.962 -1.769 1.768 C 51.822 5.409 48.67 7.516 45 7.515 c -3.669 0 -6.821 -2.106 -8.225 -5.496 c -0.334 -0.806 -0.962 -1.434 -1.769 -1.768 c -0.807 -0.334 -1.695 -0.334 -2.501 0 L 22.192 4.523 c -0.806 0.334 -1.434 0.962 -1.768 1.768 c -0.334 0.807 -0.334 1.694 0 2.501 c 1.404 3.39 0.665 7.108 -1.93 9.703 s -6.314 3.333 -9.703 1.93 c -0.806 -0.333 -1.694 -0.334 -2.501 0 c -0.806 0.334 -1.434 0.962 -1.768 1.768 L 0.25 32.505 c -0.334 0.806 -0.334 1.694 0 2.501 c 0.334 0.806 0.962 1.435 1.768 1.769 C 5.409 38.179 7.515 41.331 7.515 45 c 0 3.67 -2.106 6.821 -5.496 8.225 c -0.806 0.334 -1.434 0.962 -1.768 1.769 c -0.334 0.807 -0.334 1.695 0 2.501 l 4.272 10.312 c 0.688 1.663 2.603 2.459 4.269 1.769 c 3.392 -1.406 7.11 -0.664 9.703 1.931 c 2.594 2.595 3.333 6.312 1.929 9.702 c -0.334 0.807 -0.334 1.695 0 2.501 c 0.334 0.808 0.962 1.436 1.768 1.769 l 10.313 4.272 c 1.666 0.692 3.58 -0.104 4.269 -1.769 c 1.404 -3.391 4.556 -5.496 8.225 -5.496 c 3.67 0 6.822 2.105 8.226 5.495 c 0.52 1.258 1.739 2.018 3.023 2.018 c 0.416 0 0.838 -0.079 1.246 -0.248 l 10.312 -4.272 c 0.806 -0.333 1.434 -0.962 1.768 -1.769 c 0.334 -0.807 0.334 -1.694 0 -2.501 c -1.404 -3.39 -0.664 -7.107 1.931 -9.702 c 2.594 -2.595 6.314 -3.334 9.703 -1.93 c 1.666 0.69 3.58 -0.104 4.269 -1.769 l 4.27 -10.311 C 90.083 56.691 90.084 55.802 89.75 54.995 z" style="stroke: none; stroke-width: 1; stroke-dasharray: none; stroke-linecap: butt; stroke-linejoin: miter; stroke-miterlimit: 10; fill: rgb(255,195,46); fill-rule: nonzero; opacity: 1;" transform=" matrix(1 0 0 1 0 0) " stroke-linecap="round" />
	<circle cx="44.998999999999995" cy="44.998999999999995" r="27.499" style="stroke: none; stroke-width: 1; stroke-dasharray: none; stroke-linecap: butt; stroke-linejoin: miter; stroke-miterlimit: 10; fill: rgb(255,255,255); fill-rule: nonzero; opacity: 1;" transform="  matrix(1 0 0 1 0 0) "/>
	<path d="M 35.266 55.72 c -5.911 0 -10.72 -4.809 -10.72 -10.72 s 4.809 -10.72 10.72 -10.72 c 5.911 0 10.72 4.809 10.72 10.72 S 41.176 55.72 35.266 55.72 z M 35.266 38.28 c -3.706 0 -6.72 3.015 -6.72 6.72 c 0 3.705 3.015 6.72 6.72 6.72 c 3.705 0 6.72 -3.015 6.72 -6.72 C 41.985 41.294 38.971 38.28 35.266 38.28 z" style="stroke: none; stroke-width: 1; stroke-dasharray: none; stroke-linecap: butt; stroke-linejoin: miter; stroke-miterlimit: 10; fill: rgb(234,75,75); fill-rule: nonzero; opacity: 1;" transform=" matrix(1 0 0 1 0 0) " stroke-linecap="round" />
	<path d="M 63.454 47 H 43.985 c -1.104 0 -2 -0.896 -2 -2 s 0.896 -2 2 -2 h 19.469 c 1.104 0 2 0.896 2 2 S 64.559 47 63.454 47 z" style="stroke: none; stroke-width: 1; stroke-dasharray: none; stroke-linecap: butt; stroke-linejoin: miter; stroke-miterlimit: 10; fill: rgb(234,75,75); fill-rule: nonzero; opacity: 1;" transform=" matrix(1 0 0 1 0 0) " stroke-linecap="round" />
	<path d="M 61.337 52.29 c -1.104 0 -2 -0.896 -2 -2 V 45 c 0 -1.104 0.896 -2 2 -2 s 2 0.896 2 2 v 5.29 C 63.337 51.395 62.441 52.29 61.337 52.29 z" style="stroke: none; stroke-width: 1; stroke-dasharray: none; stroke-linecap: butt; stroke-linejoin: miter; stroke-miterlimit: 10; fill: rgb(234,75,75); fill-rule: nonzero; opacity: 1;" transform=" matrix(1 0 0 1 0 0) " stroke-linecap="round" />
	<path d="M 53.72 53.525 c -1.104 0 -2 -0.896 -2 -2 V 45 c 0 -1.104 0.896 -2 2 -2 s 2 0.896 2 2 v 6.525 C 55.72 52.63 54.824 53.525 53.72 53.525 z" style="stroke: none; stroke-width: 1; stroke-dasharray: none; stroke-linecap: butt; stroke-linejoin: miter; stroke-miterlimit: 10; fill: rgb(234,75,75); fill-rule: nonzero; opacity: 1;" transform=" matrix(1 0 0 1 0 0) " stroke-linecap="round" />
</g>
</svg>