<svg xmlns="http://www.w3.org/2000/svg" xmlns:xlink="http://www.w3.org/1999/xlink" version="1.1" width="256" height="256" viewBox="0 0 256 256" xml:space="preserve">

<defs>
</defs>
<g style="stroke: none; stroke-width: 0; stroke-dasharray: none; stroke-linecap: butt; stroke-linejoin: miter; stroke-miterlimit: 10; fill: none; fill-rule: nonzero; opacity: 1;" transform="translate(1.4065934065934016 1.4065934065934016) scale(2.81 2.81)" >
	<path d="M 60.795 74.247 l 6.76 0 c 1.412 0 2.556 -1.144 2.556 -2.556 v -9.584 c 0 -13.868 -11.242 -25.111 -25.111 -25.111 h 0 c -13.868 0 -25.111 11.242 -25.111 25.111 v 9.582 c 0 1.412 1.144 2.556 2.556 2.556 l 6.76 0" style="stroke: none; stroke-width: 1; stroke-dasharray: none; stroke-linecap: butt; stroke-linejoin: miter; stroke-miterlimit: 10; fill: rgb(50,70,155); fill-rule: nonzero; opacity: 1;" transform=" matrix(1 0 0 1 0 0) " stroke-linecap="round" />
	<path d="M 45 36.997 L 45 36.997 c -8.768 0 -15.875 -7.108 -15.875 -15.875 v -5.247 C 29.125 7.108 36.232 0 45 0 h 0 c 8.768 0 15.875 7.108 15.875 15.875 v 5.247 C 60.875 29.89 53.768 36.997 45 36.997 z" style="stroke: none; stroke-width: 1; stroke-dasharray: none; stroke-linecap: butt; stroke-linejoin: miter; stroke-miterlimit: 10; fill: rgb(50,70,155); fill-rule: nonzero; opacity: 1;" transform=" matrix(1 0 0 1 0 0) " stroke-linecap="round" />
	<circle cx="44.995" cy="74.205" r="15.795" style="stroke: none; stroke-width: 1; stroke-dasharray: none; stroke-linecap: butt; stroke-linejoin: miter; stroke-miterlimit: 10; fill: rgb(247,195,79); fill-rule: nonzero; opacity: 1;" transform="  matrix(1 0 0 1 0 0) "/>
	<path d="M 39.633 79.645 c -2.95 0 -5.349 -2.399 -5.349 -5.35 s 2.399 -5.35 5.349 -5.35 s 5.349 2.399 5.349 5.35 S 42.583 79.645 39.633 79.645 z M 39.633 70.945 c -1.847 0 -3.349 1.503 -3.349 3.35 s 1.502 3.35 3.349 3.35 s 3.349 -1.503 3.349 -3.35 S 41.48 70.945 39.633 70.945 z" style="stroke: none; stroke-width: 1; stroke-dasharray: none; stroke-linecap: butt; stroke-linejoin: miter; stroke-miterlimit: 10; fill: rgb(50,70,155); fill-rule: nonzero; opacity: 1;" transform=" matrix(1 0 0 1 0 0) " stroke-linecap="round" />
	<path d="M 54.716 75.295 H 43.982 c -0.552 0 -1 -0.447 -1 -1 s 0.448 -1 1 -1 h 10.733 c 0.553 0 1 0.447 1 1 S 55.269 75.295 54.716 75.295 z" style="stroke: none; stroke-width: 1; stroke-dasharray: none; stroke-linecap: butt; stroke-linejoin: miter; stroke-miterlimit: 10; fill: rgb(50,70,155); fill-rule: nonzero; opacity: 1;" transform=" matrix(1 0 0 1 0 0) " stroke-linecap="round" />
	<path d="M 52.637 77.934 c -0.553 0 -1 -0.447 -1 -1 v -2.639 c 0 -0.553 0.447 -1 1 -1 s 1 0.447 1 1 v 2.639 C 53.637 77.486 53.189 77.934 52.637 77.934 z" style="stroke: none; stroke-width: 1; stroke-dasharray: none; stroke-linecap: butt; stroke-linejoin: miter; stroke-miterlimit: 10; fill: rgb(50,70,155); fill-rule: nonzero; opacity: 1;" transform=" matrix(1 0 0 1 0 0) " stroke-linecap="round" />
	<path d="M 48.838 78.55 c -0.553 0 -1 -0.447 -1 -1 v -3.255 c 0 -0.553 0.447 -1 1 -1 s 1 0.447 1 1 v 3.255 C 49.838 78.103 49.391 78.55 48.838 78.55 z" style="stroke: none; stroke-width: 1; stroke-dasharray: none; stroke-linecap: butt; stroke-linejoin: miter; stroke-miterlimit: 10; fill: rgb(50,70,155); fill-rule: nonzero; opacity: 1;" transform=" matrix(1 0 0 1 0 0) " stroke-linecap="round" />
</g>
</svg>